# xmcd
# 
# Track frame offsets:
#     183
#     17863
#     34525
#     47448
#     58875
#     70658
#     89318
#     103513
#     117948
#     131223
#     146048
#     159570
#     169950
#     184580
#     197453
#     217215
#     230650
#     243590
#     256755
#     273805
#     284710
#     296903
#     311815
# 
# Disc length: 4302
# 
# Revision: 9
# Processed by: cddbd v1.5.2PL0 Copyright (c) Steve Scherf et al.
# Submitted via: fre:ac v1.0.17
# 
DISCID=6310cc17
DTITLE=Various Artist - Giants of jazz play Brassens
DYEAR=1979
DGENRE=Jazz
TTITLE0=Les petits français - Élégie à un rat de cave
TTITLE1=Les petits français - Au bois de mon coeur
TTITLE2=Les petits français - P... de toi
TTITLE3=Piano solo Dorothy Donegan - La femme d'Hector
TTITLE4=Soliste: Joe Newman - La marche nuptiale
TTITLE5=Solistes: Harry Edison, Eddie Davis - Le temps ne fait rien à l'affaire
TTITLE6=Solistes: Harry Edison, Eddie Davis - Le temps passé
TTITLE7=soliste Dorothy Donegan - Chanson pour l'auvergnat
TTITLE8=Solistes: Zanini, Géo Daly - La chasse aux papillons
TTITLE9=Solistes -  Joël Favreau, Teddy Martin, Zanini - Le pornographe
TTITLE10=Soliste: Michel Attenoux - La prière
TTITLE11=Soliste: Irakli - Les copains d'abord
TTITLE12=Solistes: Joe Newman, Michel Attenoux, François Guin - Histoire de faussaire
TTITLE13=Soliste: Cat Anderson - Embrasse-les tous
TTITLE14=Soliste: Cat Anderson, Michel Attenoux, Charles Donadieu - Maman, Papa
TTITLE15=Solistes: , Eddie Davis, Harry Edison - La non-demande en mariage
TTITLE16=Soliste: Joe Newman  - Je me suis fait tout petit
TTITLE17=Solistes: Zanini, Géo Daly - J'ai rendez-vous avec vous
TTITLE18=Soliste: Irakli - Bonhomme
TTITLE19=Solistes - Teddy Martin, Joël Favreau, Pierre Nicolas  - Le vent
TTITLE20=solistes: Dorothy Donegan, Benny Vasseur - La ballade des cimetières
TTITLE21=Solistes: , Eddie Davis, Harry Edison - La ronde des jurons
TTITLE22=Solistes: François Gui, Géo Daly, Zanini - Cupidon s'en fout
EXTD=Eddie Davis\nHarry Edison\nJoe Newman\nCat Anderson\nDorothy Donegan\nMoustache\n... YEAR: 1979
EXTT0=Chanté par Georges Brassens
EXTT1=Solistes Harry Edison, Eddie Davis
EXTT2=Solistes - Ct Anderson, Joël Favreau, Teddy Martin
EXTT3=
EXTT4=
EXTT5=
EXTT6=Refrain chanté par Georges Brassens
EXTT7=
EXTT8=
EXTT9=
EXTT10=
EXTT11=
EXTT12=
EXTT13=
EXTT14=
EXTT15=
EXTT16=
EXTT17=
EXTT18=
EXTT19=
EXTT20=
EXTT21=
EXTT22=
PLAYORDER=
